<svg width="14" height="8" viewBox="0 0 14 8" fill="none" xmlns="http://www.w3.org/2000/svg">
<path d="M7.00001 7.84705C7.26368 7.83951 7.50475 7.74158 7.70062 7.53064L13.4261 1.66959C13.5918 1.50385 13.6822 1.29292 13.6822 1.04431C13.6822 0.547102 13.2905 0.147827 12.7933 0.147827C12.5522 0.147827 12.3186 0.245762 12.1454 0.419033L7.00754 5.7L1.85464 0.419033C1.68137 0.253296 1.45537 0.147827 1.20676 0.147827C0.709551 0.147827 0.31781 0.547102 0.31781 1.04431C0.31781 1.29292 0.408212 1.50385 0.573948 1.66959L6.30693 7.53064C6.51033 7.74158 6.73634 7.84705 7.00001 7.84705Z" fill="#464646"/>
</svg>
